<?xml version="1.0" standalone="no"?>
<!DOCTYPE svg PUBLIC "-//W3C//DTD SVG 1.1//EN" "http://www.w3.org/Graphics/SVG/1.1/DTD/svg11.dtd" >
<svg xmlns="http://www.w3.org/2000/svg">
<metadata></metadata>
<defs>
<font id="common_symbolsregular" horiz-adv-x="718" >
<font-face units-per-em="2048" ascent="1638" descent="-410" />
<missing-glyph horiz-adv-x="1024" />
<glyph horiz-adv-x="0" />
<glyph unicode="&#xd;" horiz-adv-x="1024" />
<glyph unicode=" "  horiz-adv-x="1024" />
<glyph unicode="&#x09;" horiz-adv-x="1024" />
<glyph unicode="&#xa0;" horiz-adv-x="1024" />
<glyph unicode="!" horiz-adv-x="722" d="M118 1180v124q190 72 256 180h100v-736h-147v523q-85 -54 -209 -91z" />
<glyph unicode="&#x22;" horiz-adv-x="819" d="M128 1260q0 115 81.5 196t195.5 81q116 0 197 -81t81 -196t-81.5 -196.5t-196.5 -81.5q-114 0 -195.5 81t-81.5 197zM237 1260q0 -70 49.5 -119.5t119.5 -49.5q69 0 118.5 49.5t49.5 119.5t-49.5 119.5t-118.5 49.5q-70 0 -119.5 -49.5t-49.5 -119.5z" />
<glyph unicode="#" d="M20 969l152 15q37 -138 160 -138q64 0 111 32q52 35 52 92q0 55 -49 87q-43 28 -105 28q-29 0 -105 -15l21 123q30 -3 36 -3q162 0 162 95q0 44 -41 68q-36 20 -85 20q-120 0 -145 -127l-155 21q28 115 106 166t192 51q108 0 190 -49q95 -57 95 -151q0 -85 -86 -136 q130 -48 130 -176q0 -114 -110 -180q-94 -57 -215 -57q-126 0 -211 59t-100 175z" />
<glyph unicode="$" horiz-adv-x="720" d="M-15 914v105l424 462h123v-449h122v-118h-122v-166h-155v166h-392zM164 1032h213v236z" />
<glyph unicode="%" d="M19 968l159 10q26 -132 155 -132q73 0 121 41t48 108q0 136 -170 136q-98 0 -154 -68l-141 14l96 394h488v-122h-364l-34 -128q67 26 138 26q123 0 210 -64q92 -69 92 -181q0 -101 -77 -176q-94 -91 -253 -91q-130 0 -213 57q-86 59 -101 176z" />
<glyph unicode="&#x26;" horiz-adv-x="717" d="M30 1349v122h626v-95q-91 -75 -174 -189q-150 -207 -171 -439h-156q4 157 85 323q76 156 200 278h-410z" />
<glyph unicode="'" horiz-adv-x="833" d="M128 1260q0 115 81.5 196t195.5 81q116 0 197 -81t81 -196t-81.5 -196.5t-196.5 -81.5q-114 0 -195.5 81t-81.5 197zM237 1260q0 -70 49.5 -119.5t119.5 -49.5q69 0 118.5 49.5t49.5 119.5t-49.5 119.5t-118.5 49.5q-70 0 -119.5 -49.5t-49.5 -119.5z" />
<glyph unicode="(" d="M22 1230q0 116 91 187q86 67 214 67q206 0 291 -151q40 -72 40 -205q0 -260 -159 -348q-80 -45 -185 -45q-113 0 -186.5 50t-92.5 162l149 10q26 -111 132 -111q165 0 186 197q-81 -61 -191 -61q-122 0 -204 67q-85 70 -85 181zM180 1227q0 -60 48 -95q44 -34 110 -34 q153 0 153 136q0 63 -42.5 101t-107.5 38q-68 0 -114.5 -41.5t-46.5 -104.5z" />
<glyph unicode=")" d="M22 1110q0 374 316 374q226 0 294 -205q21 -63 21 -169q0 -126 -34 -205q-73 -170 -281 -170q-316 0 -316 375zM180 1110q0 -264 158 -264t158 264q0 163 -46 213t-113 50q-157 0 -157 -263z" />
<glyph unicode="*" d="M21 968q0 127 129 178q-93 47 -93 139q0 99 96 154q78 45 185 45q106 0 187 -46q96 -56 96 -155q0 -91 -93 -138q130 -55 130 -179q0 -114 -107 -177q-90 -54 -211 -54q-123 0 -212 54q-107 64 -107 179zM179 968q0 -58 51 -92q46 -30 111 -30q64 0 109 29q51 33 51 90 q0 52 -46 86.5t-118 34.5q-63 0 -108 -29q-50 -33 -50 -89zM214 1288q0 -91 126 -91q48 0 83 20q41 24 41 66q0 44 -43 69q-36 21 -82 21t-82 -20q-43 -25 -43 -65z" />
<glyph unicode="+" horiz-adv-x="1129" d="M78 417v168h356l122 277h-478v168h551l196 444h134l-195 -444h282v-168h-356l-121 -277h477v-168h-551l-194 -445h-136l195 445h-282z" />
<glyph unicode="," horiz-adv-x="2337" d="M107 1110v166q75 23 183 96.5t170 156.5h146v-1017h-196v750q-138 -109 -303 -152zM271 -555l1488 2093h214l-1490 -2093h-212zM1406 -238q0 200 213 256q-176 64 -176 219q0 108 84.5 183.5t272.5 75.5t282 -72.5t94 -189.5q0 -155 -189 -216q226 -56 226 -249 q0 -144 -114 -229t-289 -85q-187 0 -295.5 86t-108.5 221zM1607 -222q0 -172 202 -172q95 0 149 47t54 118q0 79 -58 125t-149 46q-95 0 -146.5 -46.5t-51.5 -117.5zM1645 224q0 -69 47 -104t117 -35q68 0 117.5 35t49.5 96q0 63 -48.5 100t-121.5 37q-75 0 -118 -39 t-43 -90z" />
<glyph unicode="-" horiz-adv-x="1114" d="M75 10v168h968v-168h-968zM75 673v167h399v399h170v-399h399v-167h-399v-403h-170v403h-399z" />
<glyph unicode="." horiz-adv-x="2387" d="M34 776l198 21q42 -152 208 -152q91 0 151.5 51t60.5 128q0 150 -211 150l-78 -4l30 149q211 0 211 138q0 120 -164 120q-141 0 -189 -138l-194 31q55 151 146 204.5t226 53.5q387 0 387 -255q0 -162 -187 -215q235 -58 235 -256q0 -137 -112 -226t-298 -89 q-362 0 -420 289zM298 -558l1490 2095h211l-1489 -2095h-212zM1433 -240q0 200 214 256q-176 63 -176 219q0 122 93 190.5t263 68.5q190 0 284 -72.5t94 -189.5q0 -151 -191 -216q227 -56 227 -249q0 -148 -115 -231t-288 -83q-183 0 -294 83t-111 224zM1635 -224 q0 -172 202 -172q97 0 150 47.5t53 118.5q0 78 -57.5 124t-149.5 46q-95 0 -146.5 -46.5t-51.5 -117.5zM1673 222q0 -68 47.5 -103.5t116.5 -35.5q66 0 116 35t50 97t-48.5 99t-121.5 37t-116.5 -39t-43.5 -90z" />
<glyph unicode="/" horiz-adv-x="1199" d="M-4 458v145h1139v-145h-1139zM466 241q0 25 9.5 47.5t26.5 39.5t39 26.5t48 9.5q25 0 47.5 -9.5t39.5 -26.5t26.5 -39.5t9.5 -47.5q0 -26 -9.5 -48t-26.5 -39t-39.5 -26.5t-47.5 -9.5q-26 0 -48 9.5t-39 26.5t-26.5 39t-9.5 48zM466 809q0 25 9.5 47.5t26.5 39.5t39 26.5 t48 9.5q25 0 47.5 -9.5t39.5 -26.5t26.5 -39.5t9.5 -47.5q0 -26 -9.5 -48t-26.5 -39t-39.5 -26.5t-47.5 -9.5q-26 0 -48 9.5t-39 26.5t-26.5 39t-9.5 48z" />
<glyph unicode="0" d="M22 184q0 374 316 374q226 0 294 -205q21 -63 21 -169q0 -126 -34 -205q-73 -170 -281 -170q-316 0 -316 375zM180 184q0 -264 158 -264t158 264q0 163 -46 213t-113 50q-157 0 -157 -263z" />
<glyph unicode="1" horiz-adv-x="722" d="M118 254v124q190 72 256 180h100v-736h-147v523q-85 -54 -209 -91z" />
<glyph unicode="2" horiz-adv-x="719" d="M9 -178q-4 99 91 186q52 46 148 107q241 152 241 232q0 49 -50 77q-42 23 -98 23q-72 0 -113 -31.5t-41 -109.5l-160 13q15 127 98 183t219 56q115 0 199 -48q103 -58 103 -165q0 -92 -102 -181q-54 -46 -173 -123q-49 -31 -138 -97h415v-122h-639z" />
<glyph unicode="3" d="M20 43l152 15q37 -138 160 -138q64 0 111 32q52 35 52 92q0 55 -49 87q-43 28 -105 28q-29 0 -105 -15l21 123q30 -3 36 -3q162 0 162 95q0 44 -41 68q-36 20 -85 20q-120 0 -145 -127l-155 21q28 115 106 166t192 51q108 0 190 -49q95 -57 95 -151q0 -85 -86 -136 q130 -48 130 -176q0 -114 -110 -180q-94 -57 -215 -57q-126 0 -211 59t-100 175z" />
<glyph unicode="4" horiz-adv-x="720" d="M-15 -12v105l424 462h123v-449h122v-118h-122v-166h-155v166h-392zM164 106h213v236z" />
<glyph unicode="5" d="M19 42l159 10q26 -132 155 -132q73 0 121 41t48 108q0 136 -170 136q-98 0 -154 -68l-141 14l96 394h488v-122h-364l-34 -128q67 26 138 26q123 0 210 -64q92 -69 92 -181q0 -101 -77 -176q-94 -91 -253 -91q-130 0 -213 57q-86 59 -101 176z" />
<glyph unicode="6" d="M17 166q0 392 345 392q114 0 188.5 -50.5t92.5 -161.5l-151 -9q-18 61 -40 79q-38 31 -96 31q-162 0 -182 -195q80 60 194 60q119 0 203.5 -68t84.5 -177q0 -71 -40 -132q-82 -126 -264 -126q-147 0 -241 84.5t-94 272.5zM188 66q0 -63 47 -104.5t115 -41.5q67 0 108 40 t41 102q0 64 -43.5 99t-109.5 35t-110 -34q-48 -36 -48 -96z" />
<glyph unicode="7" horiz-adv-x="717" d="M30 423v122h626v-95q-91 -75 -174 -189q-150 -207 -171 -439h-156q4 157 85 323q76 156 200 278h-410z" />
<glyph unicode="8" d="M21 42q0 127 129 178q-93 47 -93 139q0 99 96 154q78 45 185 45q106 0 187 -46q96 -56 96 -155q0 -91 -93 -138q130 -55 130 -179q0 -114 -107 -177q-90 -54 -211 -54q-123 0 -212 54q-107 64 -107 179zM179 42q0 -58 51 -92q46 -30 111 -30q64 0 109 29q51 33 51 90 q0 52 -46 86.5t-118 34.5q-63 0 -108 -29q-50 -33 -50 -89zM214 362q0 -91 126 -91q48 0 83 20q41 24 41 66q0 44 -43 69q-36 21 -82 21t-82 -20q-43 -25 -43 -65z" />
<glyph unicode="9" d="M22 304q0 116 91 187q86 67 214 67q206 0 291 -151q40 -72 40 -205q0 -260 -159 -348q-80 -45 -185 -45q-113 0 -186.5 50t-92.5 162l149 10q26 -111 132 -111q165 0 186 197q-81 -61 -191 -61q-122 0 -204 67q-85 70 -85 181zM180 301q0 -60 48 -95q44 -34 110 -34 q153 0 153 136q0 63 -42.5 101t-107.5 38q-68 0 -114.5 -41.5t-46.5 -104.5z" />
<glyph unicode=":" horiz-adv-x="2313" d="M25 510q19 175 343 412q195 140 231 181q50 55 50 113q0 149 -186 149q-91 0 -134 -32.5t-72 -121.5l-204 22q76 292 414 292q195 0 300 -80q95 -73 95 -195q0 -115 -80 -215q-57 -71 -277 -231q-108 -78 -160 -131h522v-163h-842zM299 -558l1488 2092h212l-1487 -2092 h-213zM1428 -255l197 20q27 -80 70 -111q59 -40 138 -40q95 0 153.5 52t58.5 127q0 149 -214 149q-10 0 -37.5 -2t-37.5 -2l30 149q211 -3 211 137q0 121 -161 121q-137 0 -192 -138l-193 31q55 145 139.5 201t246.5 56q372 0 372 -253q0 -162 -187 -216q234 -57 234 -258 q0 -131 -107 -219q-113 -94 -304 -94q-358 0 -417 290z" />
<glyph unicode=";" horiz-adv-x="2168" d="M7 1102v165q210 68 351 252h145v-1009h-195v744q-137 -109 -301 -152zM170 -551l1478 2079h211l-1479 -2079h-210zM1305 -250l196 20q27 -80 70 -110q57 -41 137 -41q94 0 152 52t58 127q0 148 -213 148q-10 0 -37.5 -2t-36.5 -2l30 147q209 -2 209 137q0 120 -160 120 q-135 0 -191 -137l-192 31q55 144 139 199.5t246 55.5q369 0 369 -251q0 -161 -185 -215q232 -56 232 -257q0 -130 -106 -217q-113 -93 -302 -93q-356 0 -415 288z" />
<glyph unicode="&#x3c;" horiz-adv-x="2266" d="M6 772l194 24q35 -141 199 -141q102 0 164 56t62 140q0 79 -56 136t-145 57q-94 0 -189 -86l-190 34l107 508h634v-163h-505l-46 -213q107 71 227 71q152 0 258.5 -99t106.5 -245q0 -161 -124.5 -262.5t-299.5 -101.5q-160 0 -264.5 76.5t-132.5 208.5zM269 -554 l1485 2088h211l-1484 -2088h-212zM1401 -237q0 200 213 255q-176 63 -176 218q0 122 92.5 190t262.5 68q189 0 283 -72t94 -188q0 -151 -191 -216q227 -55 227 -248q0 -147 -114.5 -230t-287.5 -83q-182 0 -292.5 83t-110.5 223zM1602 -221q0 -171 201 -171q97 0 149.5 47 t52.5 117q0 79 -57.5 124.5t-148.5 45.5q-95 0 -146 -46.5t-51 -116.5zM1639 223q0 -68 47.5 -103t116.5 -35q66 0 116 34.5t50 96.5t-49 99t-121 37q-73 0 -116.5 -39t-43.5 -90z" />
<glyph unicode="=" horiz-adv-x="1125" d="M51 376v205q106 120 278 120q60 0 125.5 -17t188.5 -70q69 -29 103.5 -38t69.5 -9q65 0 134.5 39t123.5 98v-212q-64 -60 -129.5 -87t-147.5 -27q-60 0 -114 14t-173 67t-198 53q-64 0 -120.5 -27.5t-140.5 -108.5zM51 738v205q106 120 278 120q60 0 125.5 -17t188.5 -70 q69 -30 103.5 -38.5t69.5 -8.5q65 0 134.5 39t123.5 98v-212q-64 -60 -129.5 -87t-147.5 -27q-60 0 -114 13.5t-173 67t-198 53.5q-64 0 -120.5 -27.5t-140.5 -108.5z" />
<glyph unicode="&#x3e;" horiz-adv-x="2236" d="M4 1337v163h742v-108q-330 -384 -376 -883h-200q33 434 353 828h-519zM180 -559l1489 2093h212l-1489 -2093h-212zM1347 -241q0 200 213 255q-175 64 -175 219q0 108 84.5 183t272.5 75t282 -72t94 -189q0 -155 -190 -216q226 -55 226 -249q0 -147 -114 -230t-289 -83 q-181 0 -292.5 83t-111.5 224zM1548 -225q0 -172 202 -172q96 0 150 46.5t54 118.5q0 78 -58 124t-150 46q-95 0 -146.5 -46.5t-51.5 -116.5zM1586 220q0 -67 47.5 -102.5t116.5 -35.5q66 0 116.5 34.5t50.5 96.5t-48.5 99t-121.5 37q-74 0 -117.5 -39t-43.5 -90z" />
<glyph unicode="?" horiz-adv-x="954" d="M128 1260q0 115 81.5 196t195.5 81q116 0 197 -81t81 -196t-81.5 -196.5t-196.5 -81.5q-114 0 -195.5 81t-81.5 197zM237 1260q0 -70 49.5 -119.5t119.5 -49.5q69 0 118.5 49.5t49.5 119.5t-49.5 119.5t-118.5 49.5q-70 0 -119.5 -49.5t-49.5 -119.5z" />
<glyph unicode="@" horiz-adv-x="719" d="M9 748q-4 99 91 186q52 46 148 107q241 152 241 232q0 49 -50 77q-42 23 -98 23q-72 0 -113 -31.5t-41 -109.5l-160 13q15 127 98 183t219 56q115 0 199 -48q103 -58 103 -165q0 -92 -102 -181q-54 -46 -173 -123q-49 -31 -138 -97h415v-122h-639z" />
<glyph unicode="A" horiz-adv-x="894" d="M-22 -160l373 733h160l398 -733h-189l-107 210h-352l-104 -210h-179zM316 165h239l-82 164q-13 30 -38 86q-14 -38 -119 -250z" />
<glyph unicode="B" horiz-adv-x="901" d="M98 -160v733h363q207 0 284 -93q40 -49 40 -104q0 -89 -92 -143q136 -51 136 -171q0 -55 -30 -101q-78 -121 -332 -121h-369zM263 -37h204q193 0 193 99q0 31 -21 54q-41 44 -188 44h-188v-197zM263 283h174q185 0 185 82q0 28 -17 49q-31 37 -183 37h-159v-168z" />
<glyph unicode="C" horiz-adv-x="991" d="M82 212q0 176 133 278q125 96 322 96q144 0 244 -56.5t148 -181.5l-163 -29q-63 148 -231 148q-283 0 -283 -254q0 -177 128 -235q67 -31 145 -31q201 0 252 180l167 -31q-48 -142 -153.5 -205t-255.5 -63q-296 0 -402 189q-51 91 -51 195z" />
<glyph unicode="D" horiz-adv-x="996" d="M124 -160v733h337q211 0 310 -63q153 -98 153 -299q0 -83 -26 -147q-89 -224 -422 -224h-352zM290 -37h172q108 0 162 19q75 27 108 104q23 52 23 126q0 102 -44 156.5t-112 71.5q-43 11 -140 11h-169v-488z" />
<glyph unicode="E" horiz-adv-x="903" d="M108 -160v733h701v-122h-536v-171h502v-122h-502v-195h557v-123h-722z" />
<glyph unicode="F" horiz-adv-x="811" d="M96 -160v733h653v-122h-489v-174h423v-122h-423v-315h-164z" />
<glyph unicode="G" horiz-adv-x="1079" d="M100 204q0 110 59 200q62 94 171.5 138t251.5 44q219 0 323 -99q49 -47 82 -142l-153 -32q-42 108 -132 137q-54 17 -119 17q-143 0 -225 -63q-88 -67 -88 -195q0 -172 151 -229q77 -29 164 -29q140 0 245 63v98h-270v122h434v-288q-102 -62 -200.5 -90t-201.5 -28 q-208 0 -343 92q-149 102 -149 284z" />
<glyph unicode="H" horiz-adv-x="987" d="M120 -160v733h165v-284h428v284h165v-733h-165v327h-428v-327h-165z" />
<glyph unicode="I" horiz-adv-x="233" d="M-16 -160v733h128v-733h-128z" />
<glyph unicode="J" horiz-adv-x="593" d="M-44 69l148 16q4 -74 21 -101q23 -40 91 -40q80 0 100 47q11 23 11 78v498h161v-492q0 -92 -30 -145q-61 -108 -242 -108q-125 0 -194 58q-66 56 -66 178v11z" />
<glyph unicode="K" horiz-adv-x="917" d="M115 -160v733h165v-320l424 320h235l-414 -303l417 -430h-220l-317 343l-125 -92v-251h-165z" />
<glyph unicode="L" d="M66 -160v733h162v-610h442v-123h-604z" />
<glyph unicode="M" horiz-adv-x="1175" d="M150 -160v733h221l247 -556q12 29 254 556h201v-733h-162v499l-230 -499h-140l-229 507v-507h-162z" />
<glyph unicode="N" horiz-adv-x="986" d="M112 -160v733h157l446 -506v506h160v-733h-157l-446 507v-507h-160z" />
<glyph unicode="O" horiz-adv-x="1083" d="M97 198q0 183 133 288q127 101 331 101q198 0 326 -100q136 -105 136 -281q0 -111 -60 -199q-121 -179 -403 -179q-287 0 -407 187q-56 86 -56 183zM268 197q0 -115 83 -184q80 -66 208 -66q135 0 214 69.5t79 190.5q0 79 -35 138q-74 122 -256 122q-121 0 -207 -61.5 t-86 -208.5z" />
<glyph unicode="P" horiz-adv-x="906" d="M108 -160v733h365q127 0 192 -15q103 -26 151 -100q31 -48 31 -105q0 -97 -81 -164t-282 -67h-211v-282h-165zM273 244h213q192 0 192 106q0 36 -23 61q-37 40 -172 40h-210v-207z" />
<glyph unicode="Q" horiz-adv-x="1084" d="M91 184q0 177 136 282q129 98 327 98t327 -99q136 -105 136 -281q0 -166 -123 -270q67 -32 150 -56l-56 -101q-115 32 -212 87q-102 -40 -224 -40q-196 0 -325 100q-136 106 -136 280zM261 184q0 -122 79.5 -191.5t214.5 -69.5q28 0 55 4q-28 9 -83 19l46 106 q118 -25 187 -65q86 68 86 197q0 80 -35 138q-74 122 -256 122q-128 0 -211 -64.5t-83 -195.5z" />
<glyph unicode="R" horiz-adv-x="1009" d="M140 -160v733h428q232 0 307 -92q42 -53 42 -117q0 -154 -208 -198q63 -35 177 -167q64 -79 129 -159h-209q-59 72 -119 144q-107 124 -151 145q-39 19 -112 19h-118v-308h-166zM306 268h238q203 0 203 96q0 39 -38 65q-41 27 -136 27h-267v-188z" />
<glyph unicode="S" horiz-adv-x="891" d="M50 102l156 10q9 -61 32 -90q25 -32 84.5 -51.5t133.5 -19.5q70 0 125 18q79 26 79 79q0 52 -92 79l-296 64q-187 57 -187 183q0 134 169 187q79 25 174 25q224 0 316 -106q46 -53 50 -141l-158 -9q-11 76 -56 104q-48 30 -147 30q-187 0 -187 -83q0 -27 27 -46t175 -47 q168 -31 203 -44q170 -59 170 -188q0 -62 -47 -117q-94 -111 -313 -111q-401 0 -411 274z" />
<glyph unicode="T" horiz-adv-x="800" d="M6 451v122h766v-122h-301v-611h-165v611h-300z" />
<glyph unicode="U" horiz-adv-x="987" d="M117 147v420h165v-420q0 -144 85 -181q49 -21 122 -21q128 0 176 42.5t48 159.5v420h165v-420q0 -109 -33 -175q-76 -150 -345 -150q-268 0 -346 142q-37 68 -37 183z" />
<glyph unicode="V" horiz-adv-x="893" d="M-16 573h182q95 -192 272 -577q13 31 283 577h174l-381 -733h-153z" />
<glyph unicode="W" horiz-adv-x="1365" d="M97 573h175q58 -178 166 -535q15 44 201 535h181q75 -183 193 -527q9 29 173 527h172l-270 -733h-152l-209 560l-6 -18l-203 -542h-159z" />
<glyph unicode="X" horiz-adv-x="893" d="M-30 -160l375 382l-332 351h204q80 -82 231 -248q23 26 247 248h197l-323 -346l362 -387h-230q-88 93 -257 280q-98 -102 -268 -280h-206z" />
<glyph unicode="Y" horiz-adv-x="892" d="M-30 573h206q91 -101 264 -310q38 49 267 310h200l-392 -426v-307h-167v307z" />
<glyph unicode="Z" horiz-adv-x="797" d="M-2 -46q176 173 526 497h-473v122h697v-110l-534 -500h549v-123h-765v114z" />
<glyph unicode="[" horiz-adv-x="1132" d="M-4 458v145h1139v-145h-1139z" />
<glyph unicode="\" horiz-adv-x="1198" d="M160 -407v1469h178v-450q0 -245 26 -317.5t84.5 -114.5t134.5 -42q80 0 143 44t89 113.5t26 313.5v453h177v-1062h-161v126q-52 -80 -103 -110q-70 -41 -163 -41q-83 0 -147 33q-48 25 -106 99v-514h-178z" />
<glyph unicode="]" horiz-adv-x="2053" d="M0 458v145h2048v-145h-2048z" />
<glyph unicode="^" d="M17 1092q0 392 345 392q114 0 188.5 -50.5t92.5 -161.5l-151 -9q-18 61 -40 79q-38 31 -96 31q-162 0 -182 -195q80 60 194 60q119 0 203.5 -68t84.5 -177q0 -71 -40 -132q-82 -126 -264 -126q-147 0 -241 84.5t-94 272.5zM188 992q0 -63 47 -104.5t115 -41.5 q67 0 108 40t41 102q0 64 -43.5 99t-109.5 35t-110 -34q-48 -36 -48 -96z" />
<glyph unicode="`" horiz-adv-x="805" />
<glyph unicode="a" horiz-adv-x="717" d="M14 -3q0 125 176 161q33 7 101 13q117 11 178 24v7q1 40 -22 56q-37 24 -113 24q-69 0 -97 -14q-37 -19 -58 -82l-151 16q20 74 54 110q38 40 113 61q67 18 155 18q234 0 268 -124q7 -23 7 -82v-111q0 -115 6 -143t48 -84h-169q-17 25 -25 48q-104 -59 -226 -59 q-97 0 -164 35q-81 43 -81 126zM176 -1q0 -58 110 -58q124 0 168 69q15 24 15 74v4q-59 -14 -157 -25q-136 -15 -136 -64z" />
<glyph unicode="b" horiz-adv-x="716" d="M53 -153v734h154v-223q66 43 156 43q133 0 215.5 -75.5t82.5 -199.5q0 -138 -89.5 -214t-213.5 -76q-95 0 -159 46v-35h-146zM198 122q0 -83 27 -118q46 -57 123 -57q64 0 110 42.5t46 129.5q0 90 -44 131t-107 41t-109 -42.5t-46 -126.5z" />
<glyph unicode="c" horiz-adv-x="643" d="M20 112q0 132 86 205.5t232 73.5q155 0 230 -79q38 -40 57 -114l-150 -17q-31 101 -132 101q-166 0 -166 -168q0 -169 160 -169q122 0 145 124l153 -15q-24 -114 -103.5 -166t-193.5 -52q-145 0 -230 71q-88 74 -88 205z" />
<glyph unicode="d" horiz-adv-x="720" d="M14 118q0 127 80.5 205t216.5 78q91 0 158 -44v224h153v-734h-146v35q-63 -46 -160 -46q-132 0 -217 79.5t-85 202.5zM172 118q0 -88 46 -129.5t109 -41.5q151 0 151 164q0 95 -45 137t-111 42q-150 0 -150 -172z" />
<glyph unicode="e" d="M15 109q0 132 92 208q89 74 236 74q142 0 230.5 -74t88.5 -203q0 -7 -2 -42h-483q22 -127 172 -127q110 0 159 102l157 -15q-70 -196 -316 -196q-149 0 -238 68q-96 73 -96 205zM183 181h314q-9 38 -32 59q-46 42 -121 42q-135 0 -161 -101z" />
<glyph unicode="f" horiz-adv-x="356" d="M-7 284v107h94v33q0 106 76 146q44 23 119 23q44 0 115 -10l9 -2l-24 -113q-51 7 -79 7q-38 0 -51 -9q-17 -12 -17 -49v-26h122v-107h-122v-436h-148v436h-94z" />
<glyph unicode="g" horiz-adv-x="720" d="M12 111q0 126 83.5 203t219.5 77q98 0 169 -48v37h145v-455q0 -123 -34 -177q-73 -116 -282 -116q-123 0 -200 44q-79 45 -79 154v8l148 -17q8 -44 30 -57q36 -20 100 -20q128 0 154 75q5 16 7 60q-68 -43 -158 -43q-144 0 -223.5 81t-79.5 194zM169 117q0 -169 156 -169 q157 0 157 166q0 84 -46.5 125t-112.5 41q-154 0 -154 -163z" />
<glyph unicode="h" d="M55 -152v733h153v-226q73 47 172 47q165 0 220 -94q26 -43 26 -122v-338h-153v338q0 102 -115 102q-100 0 -134 -62q-16 -29 -16 -83v-295h-153z" />
<glyph unicode="i" horiz-adv-x="287" d="M76 -152v542h119v-542h-119zM76 443v138h119v-138h-119z" />
<glyph unicode="j" horiz-adv-x="294" d="M-73 -353l29 113q47 -11 62 -11q22 0 32 11t10 73v555h141v-557q0 -100 -33 -143q-43 -56 -137 -56q-43 0 -104 15zM60 440v141h141v-141h-141z" />
<glyph unicode="k" horiz-adv-x="640" d="M54 -152v733h154v-371l230 180h212l-279 -209l288 -333h-192l-207 248l-52 -39v-209h-154z" />
<glyph unicode="l" horiz-adv-x="287" d="M73 -152v733h119v-733h-119z" />
<glyph unicode="m" horiz-adv-x="1075" d="M38 -152v532h146v-41q75 52 180 52q136 0 193 -72q81 72 202 72q229 0 229 -185v-358h-158v330q0 72 -39 90q-24 11 -57 11q-141 0 -141 -125v-306h-158v340q0 91 -96 91t-127 -61q-16 -32 -16 -95v-275h-158z" />
<glyph unicode="n" d="M55 -152v532h143v-42q72 53 184 53q200 0 236 -135q7 -25 7 -86v-322h-154v319q0 78 -46 99q-28 13 -67 13q-62 0 -108 -30q-42 -28 -42 -112v-289h-153z" />
<glyph unicode="o" d="M11 113q0 133 93 207q89 71 236 71q143 0 232 -69q96 -74 96 -202q0 -100 -42 -160q-86 -124 -286 -124q-148 0 -237 71q-92 74 -92 206zM169 113q0 -168 171 -168q170 0 170 171q0 83 -48.5 124.5t-121.5 41.5q-171 0 -171 -169z" />
<glyph unicode="p" horiz-adv-x="716" d="M53 -356v736h145v-38q67 49 166 49q135 0 216.5 -77t81.5 -202q0 -82 -39 -148q-80 -138 -267 -138q-83 0 -149 40v-222h-154zM197 105q0 -169 152 -169q64 0 110 42t46 135q0 87 -44.5 129t-106.5 42q-61 0 -109 -45t-48 -134z" />
<glyph unicode="q" horiz-adv-x="720" d="M16 113q0 125 81 201.5t215 76.5q100 0 168 -50v39h143v-736h-154v222q-66 -40 -149 -40q-124 0 -214 77t-90 210zM173 110q0 -89 46 -131.5t111 -42.5q61 0 105.5 40.5t44.5 125.5q0 92 -47.5 136.5t-110.5 44.5q-149 0 -149 -173z" />
<glyph unicode="r" horiz-adv-x="425" d="M62 -152v532h137v-36q47 47 114 47q59 0 136 -38l-53 -113q-54 25 -88 25q-98 0 -98 -139v-278h-148z" />
<glyph unicode="s" horiz-adv-x="646" d="M7 31l153 18q19 -104 150 -104q127 0 127 58q0 17 -20 27t-107 26q-123 24 -171 42q-109 39 -109 131q0 115 160 151q47 11 100 11q170 0 236 -69q31 -32 47 -107l-151 -15q-16 82 -124 82q-118 0 -118 -43q0 -21 40 -33q15 -4 95 -21q120 -24 166 -39q113 -37 113 -134 q0 -60 -52 -106q-77 -70 -231 -70q-131 0 -200 40q-78 45 -104 155z" />
<glyph unicode="t" horiz-adv-x="358" d="M6 283v106h76v117l146 71v-188h105v-106h-105v-273q0 -31 4 -38q6 -11 34 -11q16 0 63 5l22 -114q-66 -11 -103 -11q-116 0 -150 64q-16 28 -16 110v268h-76z" />
<glyph unicode="u" d="M53 54v325h153v-293q0 -59 5 -76q10 -38 50 -53q24 -9 57 -9q101 0 134 60q16 29 16 87v284h153v-532h-142v44q-74 -55 -183 -55q-199 0 -236 136q-7 27 -7 82z" />
<glyph unicode="v" horiz-adv-x="645" d="M-26 379h166q59 -118 168 -355q9 20 171 355h162l-267 -531h-131z" />
<glyph unicode="w" horiz-adv-x="932" d="M-50 379h166l128 -342l126 342h149l118 -336l16 39l120 297h158l-225 -531h-150l-117 327l-117 -327h-151z" />
<glyph unicode="x" horiz-adv-x="645" d="M-46 -152l257 275l-239 256h196q47 -52 137 -157q14 15 148 157h192l-246 -251l262 -280h-195l-159 182l-161 -182h-192z" />
<glyph unicode="y" horiz-adv-x="645" d="M-22 379h168q60 -121 169 -364q12 30 171 364h159l-262 -539q-53 -108 -86 -143q-59 -65 -155 -65q-35 0 -91 15l-19 122q65 -13 89 -13q50 0 72 22q13 13 37 65l6 13z" />
<glyph unicode="z" horiz-adv-x="645" d="M-4 -56l379 329q-36 -1 -67 -1h-288v107h577v-83l-384 -338q42 1 80 1h323v-111h-620v96z" />
<glyph unicode="{" horiz-adv-x="2181" d="M3 1103v165q83 27 185 98t165 153h144v-1006h-194v742q-137 -109 -300 -152zM197 -546l1477 2074h209l-1475 -2074h-211zM1262 -140l543 635h163v-655h140v-145h-140v-206h-193v206h-513v165zM1467 -160h308v352z" />
<glyph unicode="|" horiz-adv-x="2275" d="M2 779l196 21q27 -81 70 -111q58 -40 137 -40q96 0 153.5 52.5t57.5 126.5q0 67 -48 107.5t-161 40.5q-68 -4 -78 -4l29 148q109 -2 159.5 38.5t50.5 98.5q0 49 -40.5 84t-119.5 35q-75 0 -117.5 -29.5t-73.5 -107.5l-192 31q55 143 139 199.5t245 56.5q194 0 282 -72 t88 -180q0 -74 -47.5 -131.5t-137.5 -83.5q119 -30 175.5 -97.5t56.5 -159.5q0 -125 -106 -217.5t-303 -92.5q-188 0 -287.5 74.5t-127.5 212.5zM296 -546l1481 2081h211l-1480 -2081h-212zM1365 -139l544 637h165v-657h140v-145h-140v-207h-195v207h-514v165zM1571 -159 h308v354z" />
<glyph unicode="}" horiz-adv-x="2175" d="M5 1105v167q84 27 186.5 98.5t166.5 154.5h146v-1016h-196v749q-138 -109 -303 -153zM169 -559l1488 2093h212l-1488 -2093h-212zM1279 -524q8 76 65 153q83 118 278 258.5t231 182.5q50 55 50 113q0 65 -46.5 106.5t-139.5 41.5q-90 0 -133.5 -32t-72.5 -121l-204 20 q39 152 136.5 223t277.5 71q204 0 299.5 -80t95.5 -195q0 -113 -80 -215q-61 -76 -276 -232q-114 -83 -161 -130h522v-164h-842z" />
<glyph unicode="~" horiz-adv-x="378" d="M-493 -148l1162 1626h206l-1162 -1626h-206z" />
<glyph unicode="&#xa1;" horiz-adv-x="1355" d="M4 449q0 222 122 386q133 179 349 179q256 0 391 -315l82 285h228q-63 -224 -194 -672q40 -161 58 -189q33 -51 82 -51q88 0 112 150h87q-17 -178 -67 -246q-58 -78 -142 -78q-147 0 -213 242q-141 -243 -401 -243q-235 0 -369 162q-125 151 -125 390zM259 419 q0 -270 116 -359q56 -43 118 -43q74 0 138 71q92 102 178 420q-103 384 -321 384q-134 0 -192 -184q-37 -119 -37 -289z" />
<glyph unicode="&#xa2;" horiz-adv-x="1179" d="M48 -557q37 166 41 210q14 147 14 223v1124q0 202 41 301q48 115 165 178q107 58 240 58q181 0 311 -96q143 -106 143 -282q0 -196 -174 -321q273 -148 273 -440q0 -137 -61 -253q-65 -122 -179.5 -186t-234.5 -64q-140 0 -300 101v-145q0 -181 -48 -408h-231zM327 135 q176 -121 283 -121q132 0 193 122q47 93 47 239q0 212 -147 400q-71 -22 -124 -22q-142 0 -142 85q0 75 110 75q53 0 151 -24q67 139 67 263q0 111 -51 185q-58 84 -164 84q-116 0 -180 -98q-43 -66 -43 -218v-970z" />
<glyph unicode="&#xa3;" horiz-adv-x="1180" d="M29 -533q32 97 38 139q11 74 11 185v705q0 234 146 386.5t379 152.5q261 0 397 -187q104 -143 104 -326q0 -204 -127 -376q-168 -227 -426 -227q-149 0 -248 71v-83q0 -275 -39 -440h-235zM303 368q0 -146 25 -201q28 -63 101 -98q65 -31 140 -31q148 0 232 120 q75 105 75 259q0 123 -49 234q-47 106 -130 169q-90 68 -200 68q-113 0 -163 -87q-31 -54 -31 -248v-185z" />
<glyph unicode="&#xa4;" horiz-adv-x="1181" d="M-25 623q73 226 160 302q68 60 191 60h795v-203h-269q-36 -240 -36 -461q0 -189 117 -189q88 0 109 128h81q-18 -172 -67 -250q-69 -110 -185 -110q-222 0 -222 391q0 131 39 491h-240q-34 -560 -83 -714q-53 -168 -154 -168q-49 0 -81 32.5t-32 81.5q0 41 66 149 q75 122 89 174q45 161 59 445h-27q-72 0 -108 -23q-60 -39 -116 -136h-86z" />
<glyph unicode="&#xa5;" horiz-adv-x="1316" d="M-68 -93l726 1603l661 -1603h-1387zM138 41h856l-407 987z" />
<glyph unicode="&#xad;" horiz-adv-x="1114" d="M75 10v168h968v-168h-968zM75 673v167h399v399h170v-399h399v-167h-399v-403h-170v403h-399z" />
<glyph unicode="&#xb5;" horiz-adv-x="1707" />
<glyph unicode="&#xb8;" horiz-adv-x="1180" d="M-12 63h1150v-149h-1150v149zM-12 714v84l1150 571v-170l-898 -443l898 -446v-165z" />
<glyph unicode="&#xb9;" horiz-adv-x="1180" d="M-12 63h1150v-149h-1150v149zM-12 145v170l898 443l-898 446v165l1150 -569v-84z" />
<glyph unicode="&#xba;" horiz-adv-x="1180" d="M-12 714v84l1150 571v-170l-898 -443l898 -446v-165z" />
<glyph unicode="&#xbb;" horiz-adv-x="1180" d="M-12 145v170l898 443l-898 446v165l1150 -569v-84z" />
<glyph unicode="&#x2000;" horiz-adv-x="769" />
<glyph unicode="&#x2001;" horiz-adv-x="1538" />
<glyph unicode="&#x2002;" horiz-adv-x="769" />
<glyph unicode="&#x2003;" horiz-adv-x="1538" />
<glyph unicode="&#x2004;" horiz-adv-x="512" />
<glyph unicode="&#x2005;" horiz-adv-x="384" />
<glyph unicode="&#x2006;" horiz-adv-x="256" />
<glyph unicode="&#x2007;" horiz-adv-x="256" />
<glyph unicode="&#x2008;" horiz-adv-x="192" />
<glyph unicode="&#x2009;" horiz-adv-x="307" />
<glyph unicode="&#x200a;" horiz-adv-x="85" />
<glyph unicode="&#x2010;" horiz-adv-x="1114" d="M75 10v168h968v-168h-968zM75 673v167h399v399h170v-399h399v-167h-399v-403h-170v403h-399z" />
<glyph unicode="&#x2011;" horiz-adv-x="1114" d="M75 10v168h968v-168h-968zM75 673v167h399v399h170v-399h399v-167h-399v-403h-170v403h-399z" />
<glyph unicode="&#x2012;" horiz-adv-x="1114" d="M75 10v168h968v-168h-968zM75 673v167h399v399h170v-399h399v-167h-399v-403h-170v403h-399z" />
<glyph unicode="&#x2013;" horiz-adv-x="1170" d="M75 10v168h1024v-168h-1024zM75 673v167h422v399h180v-399h422v-167h-422v-403h-180v403h-422z" />
<glyph unicode="&#x2014;" horiz-adv-x="2194" d="M75 10v168h2048v-168h-2048zM75 673v167h844v399h360v-399h844v-167h-844v-403h-360v403h-844z" />
<glyph unicode="&#x202f;" horiz-adv-x="307" />
<glyph unicode="&#x205f;" horiz-adv-x="384" />
<glyph unicode="&#x25fc;" horiz-adv-x="380" d="M0 0v380h380v-380h-380z" />
</font>
</defs>
</svg>
